<?xml version="1.0" standalone="no"?>
<!DOCTYPE svg PUBLIC "-//W3C//DTD SVG 20010904//EN"
 "http://www.w3.org/TR/2001/REC-SVG-20010904/DTD/svg10.dtd">
<svg version="1.0" xmlns="http://www.w3.org/2000/svg"
 width="2083.000000pt" height="2083.000000pt" viewBox="0 0 2083.000000 2083.000000"
 preserveAspectRatio="xMidYMid meet">
<metadata>
Created by potrace 1.14, written by Peter Selinger 2001-2017
</metadata>
<g transform="translate(0.000000,2083.000000) scale(0.100000,-0.100000)"
fill="#000000" stroke="none">
<path d="M7438 18235 c-3 -3 -36 -8 -74 -10 -113 -7 -284 -21 -364 -30 -19 -3
-62 -7 -96 -10 -33 -3 -71 -8 -85 -10 -13 -3 -44 -8 -69 -11 -116 -13 -152
-24 -176 -50 -12 -12 -24 -21 -27 -18 -2 3 -12 -7 -21 -21 -9 -14 -13 -25 -9
-25 5 0 1 -5 -7 -10 -13 -8 -15 -99 -17 -711 l-2 -701 -32 -54 c-18 -29 -36
-51 -40 -48 -4 2 -10 0 -14 -6 -5 -7 -58 -27 -95 -35 -74 -15 -130 -31 -130
-36 0 -4 -6 -6 -12 -5 -22 2 -188 -48 -188 -57 0 -4 -4 -6 -9 -3 -11 7 -255
-74 -259 -85 -2 -5 -7 -7 -12 -4 -4 3 -25 -3 -46 -12 -22 -9 -43 -17 -49 -19
-5 -1 -28 -10 -50 -19 -22 -10 -49 -20 -59 -22 -11 -2 -24 -7 -30 -12 -6 -4
-38 -18 -71 -31 -33 -13 -63 -28 -66 -33 -3 -5 -10 -8 -15 -8 -13 2 -114 -42
-114 -50 0 -3 -6 -6 -12 -6 -13 0 -209 -92 -218 -102 -3 -3 -27 -16 -53 -29
-26 -12 -50 -29 -53 -37 -4 -8 -10 -13 -14 -10 -12 8 -50 -78 -52 -116 -1 -42
20 -109 34 -109 6 0 9 -3 5 -6 -8 -8 85 -100 98 -96 5 2 7 1 3 -3 -9 -9 314
-334 326 -327 5 3 6 1 3 -5 -7 -11 28 -44 38 -35 4 4 5 0 3 -8 -2 -8 3 -14 9
-13 7 2 12 -1 10 -5 -3 -10 144 -158 155 -155 4 2 7 0 5 -5 -3 -11 130 -142
137 -134 4 4 6 2 4 -3 -4 -13 82 -101 94 -97 5 1 7 -2 4 -7 -8 -12 38 -48 83
-67 39 -16 97 -18 106 -4 4 6 10 8 15 5 4 -3 38 8 75 25 37 16 73 30 82 30 8
0 11 5 7 12 -4 7 -3 8 5 4 6 -4 17 -3 24 2 9 7 124 49 157 57 3 1 19 7 35 14
17 7 38 14 47 16 9 2 26 9 37 15 12 6 21 9 21 6 0 -3 26 4 58 15 31 11 57 19
57 18 0 0 20 5 45 12 25 7 49 12 54 10 4 -1 14 4 22 10 8 6 14 8 14 4 0 -4 6
-2 13 4 8 6 16 9 19 6 2 -3 26 1 51 9 26 8 47 12 47 9 0 -3 6 0 13 6 8 6 16 9
19 6 3 -3 30 1 61 9 30 8 79 17 108 21 28 4 61 9 73 11 12 2 37 7 56 10 19 3
46 7 60 10 14 2 54 7 90 10 36 3 81 7 100 10 212 24 721 24 904 -1 17 -2 58
-7 91 -10 59 -6 106 -12 154 -20 13 -2 45 -7 70 -11 25 -4 55 -9 66 -11 11 -2
55 -11 97 -19 42 -8 130 -28 195 -45 65 -16 125 -32 134 -34 9 -2 47 -13 85
-25 38 -12 79 -24 92 -25 13 -2 28 -8 35 -13 13 -10 58 -23 68 -19 3 1 13 -4
22 -11 9 -8 21 -11 27 -7 5 3 10 2 10 -3 0 -5 19 -15 43 -22 23 -7 46 -17 51
-22 6 -4 16 -8 23 -8 7 0 32 -9 56 -19 178 -82 216 -88 297 -53 29 13 952 936
969 970 19 36 23 100 10 140 -13 40 -65 102 -86 102 -7 0 -13 5 -13 11 0 6 -7
9 -15 5 -8 -3 -15 -2 -15 3 0 9 -260 141 -279 141 -6 0 -11 5 -11 11 0 6 -6 9
-14 6 -8 -3 -16 -2 -18 2 -2 7 -248 115 -308 136 -3 1 -14 5 -25 10 -137 56
-435 156 -446 149 -5 -3 -9 -1 -9 4 0 8 -53 25 -85 26 -5 1 -12 4 -16 8 -3 4
-18 9 -35 12 -16 2 -36 6 -44 9 -8 3 -47 15 -85 26 -39 11 -80 29 -90 40 -28
26 -56 61 -50 61 3 0 1 10 -6 22 -8 15 -11 209 -12 710 0 405 -4 688 -9 688
-5 0 -7 4 -4 9 7 11 -19 63 -27 54 -4 -3 -7 1 -7 10 0 27 -79 64 -165 76 -44
7 -91 14 -105 17 -14 2 -52 7 -85 10 -33 4 -69 8 -80 9 -11 1 -40 5 -65 8 -51
7 -120 14 -235 22 -44 4 -111 9 -150 12 -92 9 -840 15 -847 8z"/>
<path d="M3242 16739 c-31 -9 -152 -95 -179 -126 -6 -8 -14 -14 -18 -13 -4 1
-22 -12 -41 -29 -19 -17 -34 -28 -34 -24 0 4 -8 -2 -18 -13 -10 -10 -38 -35
-63 -54 -24 -19 -57 -47 -72 -62 -15 -15 -31 -28 -35 -29 -4 0 -6 -5 -4 -11 1
-5 -1 -7 -6 -4 -5 3 -33 -17 -62 -44 -29 -27 -59 -51 -67 -54 -8 -3 -11 -11
-8 -16 4 -6 3 -9 -2 -8 -7 3 -35 -20 -117 -96 -17 -16 -30 -33 -28 -38 1 -5
-2 -7 -6 -4 -5 3 -34 -21 -65 -53 -31 -32 -63 -61 -72 -65 -9 -3 -13 -11 -10
-16 4 -6 3 -9 -2 -8 -12 4 -63 -48 -56 -56 4 -3 1 -6 -5 -6 -18 0 -274 -269
-266 -281 2 -4 -1 -11 -7 -15 -8 -4 -9 -3 -5 4 18 30 -6 7 -48 -45 -26 -32
-57 -69 -70 -83 -12 -14 -48 -56 -80 -95 -31 -38 -62 -77 -69 -85 -7 -8 -11
-18 -9 -22 1 -5 -1 -7 -5 -6 -5 2 -8 1 -8 -2 0 -3 -15 -20 -32 -39 -18 -18
-30 -39 -26 -45 3 -6 3 -8 -2 -4 -4 4 -21 -12 -38 -35 -17 -23 -35 -45 -41
-49 -7 -5 -7 -8 -1 -8 6 0 3 -6 -6 -13 -9 -7 -35 -41 -59 -76 -36 -53 -43 -70
-42 -110 1 -61 6 -84 20 -89 7 -2 10 -8 7 -12 -6 -10 235 -256 247 -252 4 1 7
-1 6 -5 -4 -10 125 -139 135 -135 4 1 6 -1 5 -5 -4 -10 145 -159 154 -155 5 1
7 -1 6 -5 -4 -10 644 -659 654 -655 5 1 7 -1 6 -5 -4 -10 125 -139 134 -136 5
2 7 -1 5 -5 -3 -10 305 -318 315 -314 5 1 7 -1 6 -6 -4 -9 145 -158 154 -155
5 2 7 -1 5 -5 -4 -15 202 -211 240 -228 86 -37 182 -5 234 79 54 88 59 97 58
103 0 4 3 10 8 13 5 3 36 47 69 96 32 50 61 92 64 95 14 13 51 70 44 70 -4 0
5 10 20 21 15 12 25 23 23 26 -3 2 5 14 17 27 11 12 28 31 36 42 107 135 138
172 159 191 15 13 22 23 18 23 -5 0 5 12 22 26 17 14 28 31 24 37 -3 7 -3 9 2
5 8 -8 18 1 53 46 12 16 22 27 22 25 0 -2 61 55 135 126 74 72 154 146 177
166 24 20 61 52 83 71 22 19 85 69 140 111 55 41 110 85 123 96 12 11 22 17
22 13 1 -4 9 2 18 13 10 11 23 21 30 23 8 1 23 11 35 22 11 11 27 20 34 20 7
0 13 5 13 10 0 6 6 10 13 10 7 0 24 11 39 25 15 14 32 25 38 25 11 0 24 9 61
43 10 9 19 14 19 10 0 -10 28 30 28 41 0 5 6 12 12 16 31 19 12 180 -20 180
-6 0 -9 4 -6 8 6 9 -2009 2025 -2041 2041 -31 16 -103 21 -141 10z"/>
<path d="M12269 16728 c-19 -10 -33 -23 -31 -28 1 -6 -1 -9 -5 -7 -5 1 -19 -9
-33 -23 -14 -14 -24 -28 -22 -32 1 -5 -1 -7 -5 -6 -12 4 -112 -99 -105 -107 4
-4 2 -5 -4 -3 -11 3 -130 -113 -126 -124 1 -5 -1 -7 -5 -6 -11 4 -79 -64 -75
-74 1 -4 -1 -7 -5 -6 -12 4 -112 -99 -105 -107 4 -4 2 -5 -4 -3 -11 3 -130
-113 -126 -124 1 -5 -1 -7 -6 -5 -9 3 -138 -126 -135 -135 2 -5 0 -7 -5 -6
-11 4 -127 -115 -124 -126 2 -6 1 -8 -3 -4 -8 7 -111 -93 -107 -104 1 -5 -1
-7 -6 -5 -9 3 -98 -86 -94 -96 1 -4 -1 -6 -5 -5 -11 4 -79 -64 -75 -74 1 -4
-1 -7 -5 -6 -12 4 -112 -99 -105 -107 4 -4 2 -5 -4 -3 -5 1 -26 -12 -45 -31
-19 -19 -32 -40 -31 -45 2 -6 1 -8 -3 -4 -8 7 -111 -93 -107 -105 1 -4 -2 -6
-6 -5 -10 4 -78 -64 -74 -75 1 -4 -1 -6 -6 -5 -9 4 -158 -145 -154 -155 1 -4
-1 -6 -5 -5 -12 4 -128 -115 -125 -126 2 -6 1 -8 -3 -4 -8 7 -111 -93 -107
-105 1 -4 -1 -6 -6 -5 -10 4 -43 -30 -65 -64 -24 -38 -33 -113 -17 -133 7 -8
9 -15 6 -15 -16 0 38 -78 65 -94 16 -9 29 -15 29 -12 0 3 11 -6 25 -20 14 -14
30 -22 35 -19 6 3 10 2 10 -3 0 -5 12 -15 28 -23 15 -8 33 -22 41 -32 7 -10
20 -16 28 -13 8 3 11 1 8 -4 -3 -6 -2 -10 4 -10 5 0 16 -7 24 -15 8 -8 20 -16
27 -17 6 -2 28 -18 48 -35 19 -18 37 -31 39 -29 2 2 20 -12 40 -30 20 -19 41
-34 45 -34 4 0 16 -8 26 -17 11 -10 28 -25 38 -33 26 -21 131 -108 174 -145
61 -52 384 -377 440 -444 30 -35 65 -75 78 -89 12 -14 22 -28 22 -31 0 -3 18
-25 39 -48 21 -23 37 -44 34 -47 -3 -3 2 -8 11 -12 9 -3 16 -10 16 -14 0 -7
108 -157 147 -205 10 -11 16 -21 15 -22 -1 -2 19 -35 44 -75 118 -186 146
-219 198 -221 14 -1 26 -5 26 -8 0 -11 93 11 119 28 35 23 277 266 274 275 -2
5 2 8 7 8 14 0 156 142 153 152 -2 4 2 8 7 8 13 0 520 507 520 520 0 5 3 9 8
8 10 -4 268 254 264 264 -1 4 2 8 8 8 13 0 316 302 312 312 -1 4 3 8 8 8 14 0
360 347 360 360 0 6 3 9 8 8 4 -2 35 25 69 60 45 45 64 73 70 100 9 46 5 116
-8 120 -5 2 -7 8 -4 13 4 5 -5 20 -19 34 -14 14 -26 29 -27 33 -5 22 -12 31
-22 25 -5 -3 -8 -2 -4 3 6 11 -109 167 -175 236 -14 15 -23 28 -20 28 4 1 -4
10 -17 20 -13 11 -20 20 -17 20 4 0 1 6 -6 14 -7 8 -17 11 -22 8 -5 -3 -6 -1
-3 5 3 5 -12 28 -34 51 -21 23 -37 42 -34 42 2 0 -8 13 -23 28 -15 16 -52 57
-82 92 -89 102 -113 125 -122 122 -5 -1 -7 2 -3 7 3 6 -3 16 -15 23 -11 7 -20
16 -20 20 0 11 -50 58 -62 58 -6 0 -9 3 -5 6 8 8 -25 44 -35 38 -4 -3 -8 0 -8
6 0 14 -90 106 -101 103 -5 -2 -9 2 -9 8 0 15 -26 39 -34 32 -3 -4 -6 -1 -6 5
0 12 -47 62 -58 62 -4 0 -13 9 -20 20 -7 12 -18 18 -24 14 -6 -4 -8 -3 -5 3 3
5 -17 29 -45 54 -28 24 -63 55 -78 69 -15 14 -51 45 -80 70 -30 25 -61 53 -69
63 -9 9 -20 17 -25 17 -5 0 -16 9 -26 20 -47 54 -391 312 -407 305 -7 -2 -13
-1 -13 3 0 16 -97 8 -131 -10z"/>
<path d="M5657 14256 c-117 -63 -147 -83 -140 -91 5 -4 3 -6 -2 -2 -14 7 -87
-38 -77 -48 4 -4 2 -5 -5 -2 -6 4 -17 1 -25 -6 -7 -7 -36 -27 -64 -45 -46 -29
-66 -44 -111 -82 -7 -5 -16 -10 -21 -10 -4 0 -26 -16 -48 -36 -21 -20 -41 -37
-44 -37 -7 -2 -39 -28 -67 -54 -13 -12 -23 -20 -23 -16 0 3 -14 -9 -32 -26
-17 -17 -35 -31 -40 -31 -4 0 -8 -7 -8 -16 0 -8 -4 -13 -8 -10 -5 3 -41 -26
-80 -63 -40 -37 -72 -67 -72 -65 0 2 -20 -17 -45 -43 -25 -25 -45 -49 -45 -55
0 -5 -4 -6 -10 -3 -5 3 -10 -2 -10 -11 0 -10 -3 -15 -6 -12 -3 4 -22 -12 -42
-35 -20 -23 -45 -48 -55 -55 -9 -7 -15 -18 -12 -23 4 -5 -1 -9 -9 -9 -8 0 -19
-6 -23 -14 -7 -12 -31 -40 -125 -149 -15 -18 -28 -38 -28 -45 0 -7 -4 -10 -10
-7 -5 3 -10 2 -10 -3 0 -5 -18 -32 -40 -60 -22 -27 -40 -52 -40 -55 0 -3 -11
-18 -25 -33 -13 -14 -22 -32 -18 -38 3 -6 3 -8 -2 -4 -8 7 -28 -14 -36 -37 -2
-5 -9 -17 -16 -25 -7 -8 -13 -18 -14 -22 0 -4 -13 -21 -29 -39 -17 -17 -28
-35 -25 -39 3 -5 1 -10 -4 -12 -12 -4 -124 -190 -124 -205 0 -7 -3 -13 -7 -13
-11 0 -51 -80 -45 -90 3 -5 2 -10 -3 -10 -16 0 -7 -92 12 -128 19 -36 156
-179 168 -174 5 1 7 -1 6 -6 -4 -10 484 -498 494 -494 5 1 7 -1 6 -5 -2 -5 26
-37 62 -73 36 -36 68 -64 73 -62 4 1 6 -1 5 -6 -4 -10 304 -318 314 -314 4 1
7 -1 6 -5 -3 -10 325 -339 334 -336 5 2 7 0 5 -5 -3 -9 126 -138 135 -135 5 2
7 0 5 -5 -3 -10 645 -658 655 -655 5 2 7 0 5 -5 -3 -9 146 -158 155 -154 5 1
7 -1 5 -6 -1 -4 14 -23 34 -42 39 -38 71 -84 76 -109 2 -9 4 -786 4 -1727 1
-1491 3 -1716 16 -1740 8 -16 14 -30 14 -31 -2 -12 14 -33 25 -33 8 0 13 -3
12 -7 -2 -5 0 -8 3 -8 3 0 13 -7 21 -16 15 -14 181 -65 246 -74 15 -2 43 -9
62 -15 19 -5 55 -13 79 -16 25 -3 47 -7 51 -9 3 -2 24 -6 46 -9 22 -4 49 -8
59 -10 54 -10 156 -23 240 -31 22 -2 72 -7 110 -11 143 -15 728 -8 820 10 11
2 49 7 85 11 36 4 74 9 85 11 10 2 37 6 60 9 22 3 48 8 58 11 10 3 32 7 50 10
49 6 137 24 189 39 25 7 49 11 52 8 3 -4 6 -2 6 4 0 6 9 9 20 6 12 -3 20 0 20
6 0 7 4 10 8 7 5 -3 31 2 58 10 27 9 59 17 71 20 40 8 73 23 73 34 0 5 5 9 11
8 5 -2 24 17 42 40 l32 44 1 1747 c1 1342 4 1753 14 1770 6 13 9 25 7 27 -3 3
23 33 57 67 33 34 60 65 59 69 -2 5 1 8 7 8 13 0 236 222 233 232 -2 4 3 7 10
5 6 -1 11 4 9 11 -1 8 1 11 6 8 11 -6 78 65 74 77 -1 5 1 6 6 3 12 -7 54 38
45 48 -5 4 -1 6 7 4 8 -2 14 3 12 10 -1 8 1 11 6 8 11 -6 43 30 34 39 -4 4 0
5 8 3 8 -2 14 3 13 9 -2 7 3 12 10 10 6 -1 11 4 9 11 -1 8 1 11 6 8 11 -6 43
30 34 39 -4 4 -2 5 3 3 12 -4 71 52 68 64 -2 4 3 7 10 5 6 -1 11 4 9 11 -1 8
1 11 6 8 12 -7 54 38 45 48 -5 4 -3 6 2 5 14 -5 55 32 49 43 -3 5 0 7 8 6 7
-2 12 3 11 9 -2 7 3 12 10 10 6 -1 11 5 9 13 -2 8 -1 12 3 8 10 -10 45 24 38
36 -3 6 -3 8 1 4 10 -8 47 23 40 34 -3 5 0 7 8 6 7 -2 12 3 11 9 -2 7 3 12 10
10 6 -1 11 5 9 13 -2 8 -1 12 3 8 9 -9 45 23 39 34 -3 5 0 7 8 6 7 -2 12 3 11
9 -2 7 1 12 6 10 11 -3 177 165 173 176 -1 4 3 7 8 7 14 0 156 142 153 152 -2
4 2 8 7 8 13 0 520 507 520 520 0 5 3 9 8 8 10 -4 268 254 265 264 -2 4 2 8 7
8 13 0 240 227 265 265 30 46 26 136 -9 203 -15 28 -31 52 -35 52 -4 0 -8 6
-8 13 0 14 -114 200 -142 233 -11 12 -17 24 -15 27 2 2 -2 10 -11 17 -8 7 -15
19 -15 26 0 8 -4 14 -8 14 -4 0 -15 12 -24 28 -9 15 -25 37 -35 49 -10 11 -25
32 -33 44 -8 13 -28 37 -45 53 -16 16 -23 26 -15 21 8 -4 2 7 -15 26 -16 19
-33 35 -37 37 -5 2 -8 10 -8 17 0 7 -3 15 -7 17 -5 2 -30 29 -57 61 -27 32
-69 79 -93 104 -23 25 -43 47 -43 50 0 10 -264 261 -271 257 -4 -2 -10 4 -14
13 -3 10 -31 38 -62 63 -30 25 -67 55 -82 67 -85 72 -180 141 -185 136 -3 -4
-6 -1 -6 5 0 12 -112 92 -129 92 -6 0 -11 5 -11 10 0 6 -8 14 -17 17 -9 4 -25
14 -35 22 -10 9 -21 15 -24 13 -2 -1 -14 7 -26 18 -12 11 -28 20 -35 20 -7 0
-13 5 -13 10 0 6 -7 10 -15 10 -8 0 -15 5 -15 10 0 6 -4 10 -8 10 -5 0 -43 20
-85 44 -77 44 -83 45 -179 37 -9 0 -23 -8 -32 -16 -8 -9 -19 -16 -23 -16 -4
-1 -7 -5 -6 -10 2 -5 0 -8 -5 -7 -11 4 -111 -99 -104 -107 4 -4 2 -5 -4 -3
-14 4 -80 -62 -76 -76 2 -6 1 -8 -3 -4 -8 7 -111 -93 -107 -104 1 -5 -2 -7 -6
-5 -10 3 -78 -65 -74 -75 1 -5 -1 -7 -6 -5 -9 3 -158 -146 -154 -155 1 -5 -1
-7 -6 -6 -11 4 -127 -115 -124 -126 2 -6 1 -8 -3 -4 -8 7 -111 -93 -107 -104
1 -5 -2 -7 -6 -5 -11 3 -158 -145 -154 -156 1 -4 -2 -6 -6 -5 -10 4 -78 -64
-74 -75 1 -4 -1 -6 -6 -5 -9 4 -158 -145 -154 -155 1 -4 -1 -6 -5 -5 -12 4
-128 -115 -125 -126 2 -6 1 -8 -3 -4 -8 7 -111 -93 -107 -105 1 -4 -2 -6 -6
-5 -10 4 -78 -64 -74 -75 1 -4 -1 -6 -5 -5 -12 4 -128 -115 -125 -126 2 -6 1
-8 -3 -4 -8 7 -111 -93 -107 -105 1 -4 -1 -6 -5 -5 -12 4 -52 -39 -45 -47 4
-4 2 -5 -4 -3 -6 1 -27 -10 -45 -27 -19 -16 -43 -31 -54 -32 -11 -1 -32 -4
-46 -6 -14 -3 -42 1 -62 8 -20 7 -37 10 -37 8 0 -8 -97 88 -985 977 -473 474
-878 873 -899 887 -62 40 -122 39 -199 -1z"/>
<path d="M2359 13396 c-24 -13 -43 -29 -41 -35 1 -6 -2 -11 -8 -11 -8 0 -121
-208 -125 -230 -1 -6 -72 -155 -90 -190 -7 -14 -14 -28 -15 -32 0 -4 -9 -27
-19 -50 -18 -42 -32 -78 -36 -88 -1 -3 -7 -18 -14 -35 -7 -16 -14 -34 -15 -40
-3 -10 -8 -22 -39 -97 -9 -21 -13 -38 -10 -38 3 0 1 -6 -4 -12 -6 -7 -20 -44
-32 -83 -13 -38 -26 -79 -31 -90 -20 -47 -39 -118 -34 -126 3 -5 0 -9 -6 -9
-6 0 -9 -4 -5 -9 3 -5 0 -13 -6 -16 -5 -4 -8 -13 -5 -21 3 -7 1 -16 -3 -18 -8
-5 -15 -31 -28 -91 -2 -11 -13 -51 -24 -89 -11 -38 -22 -78 -23 -90 -3 -26
-37 -86 -49 -86 -4 0 -6 -4 -3 -8 3 -5 -17 -19 -44 -32 l-49 -23 -688 -1
c-725 -1 -714 0 -751 -45 -11 -12 -12 -13 -6 -1 7 13 6 13 -10 1 -9 -8 -24
-28 -33 -45 -16 -30 -20 -46 -28 -111 -2 -16 -6 -41 -9 -54 -3 -13 -8 -46 -11
-75 -3 -28 -8 -69 -10 -91 -3 -22 -7 -56 -10 -75 -5 -32 -7 -59 -19 -220 -3
-30 -8 -93 -13 -140 -10 -104 -10 -838 0 -935 3 -38 9 -106 12 -150 3 -44 7
-98 10 -120 2 -22 7 -69 10 -105 3 -36 8 -76 11 -90 2 -14 6 -47 9 -75 3 -27
8 -68 12 -90 4 -22 7 -44 8 -50 6 -59 20 -126 33 -150 22 -44 68 -81 115 -93
28 -8 269 -12 712 -12 712 -1 705 -1 705 -11 0 -3 11 -11 24 -17 38 -17 74
-73 92 -143 9 -35 19 -68 22 -74 4 -5 7 -14 7 -20 1 -25 38 -155 44 -155 4 0
7 -10 8 -22 0 -21 74 -243 103 -313 7 -16 14 -36 16 -43 5 -25 76 -197 86
-209 6 -7 8 -13 5 -13 -3 0 11 -35 30 -77 19 -43 37 -86 40 -95 3 -10 10 -18
15 -18 5 0 6 -5 2 -12 -4 -6 0 -16 8 -22 8 -6 15 -15 16 -21 2 -21 36 -95 44
-95 4 0 7 -3 6 -7 -3 -11 34 -87 46 -95 6 -4 8 -8 4 -8 -4 0 8 -26 25 -57 18
-32 41 -74 50 -93 10 -19 27 -48 37 -65 11 -16 23 -37 27 -45 4 -8 27 -48 52
-89 52 -87 64 -156 37 -209 -9 -18 -14 -32 -12 -32 3 0 -29 -35 -72 -77 -42
-43 -76 -81 -74 -86 1 -4 -1 -6 -5 -5 -10 4 -139 -125 -135 -135 1 -4 -1 -6
-5 -5 -12 4 -128 -115 -125 -126 2 -6 1 -8 -3 -4 -8 7 -111 -93 -107 -105 1
-4 -2 -6 -6 -5 -10 4 -78 -64 -74 -75 1 -4 -1 -6 -5 -5 -12 4 -128 -115 -125
-126 2 -6 1 -8 -3 -4 -8 7 -111 -93 -107 -105 1 -4 -2 -6 -6 -5 -15 5 -120
-112 -131 -145 -17 -55 -9 -109 28 -169 19 -32 39 -54 44 -51 6 3 7 2 4 -4 -4
-5 3 -19 13 -31 11 -12 20 -23 20 -26 0 -4 32 -44 63 -77 9 -10 17 -24 17 -30
0 -5 4 -7 10 -4 5 3 10 -1 10 -9 0 -9 4 -16 8 -16 5 0 13 -9 18 -19 10 -20 69
-94 121 -148 17 -18 29 -33 26 -33 -3 0 10 -15 28 -34 19 -19 40 -43 48 -54 8
-12 18 -19 23 -16 5 3 7 1 6 -4 -4 -12 93 -118 104 -114 4 1 7 -2 6 -7 -4 -12
99 -121 106 -114 3 4 6 1 6 -6 0 -15 86 -101 101 -101 7 0 10 -3 6 -6 -10 -11
297 -301 314 -296 6 1 8 -1 5 -6 -6 -10 66 -72 84 -72 6 0 8 -4 5 -10 -3 -6
-3 -10 2 -10 4 0 22 -14 40 -30 18 -17 35 -30 39 -30 3 0 15 -11 26 -26 11
-14 22 -23 25 -21 2 3 17 -7 33 -22 58 -53 79 -71 84 -71 4 0 44 -32 77 -63
10 -9 21 -17 24 -17 3 0 15 -9 27 -20 12 -10 26 -17 31 -13 6 3 7 2 4 -4 -3
-5 29 -32 71 -61 89 -60 145 -71 209 -42 39 17 340 307 335 322 -1 4 3 8 8 8
14 0 360 347 360 360 0 6 3 9 8 8 10 -4 268 254 264 264 -1 4 4 8 12 8 8 0 21
6 28 12 7 7 20 15 28 17 24 7 125 7 130 0 5 -6 65 -40 180 -102 30 -17 63 -37
72 -45 9 -8 23 -11 30 -6 7 4 10 4 6 -1 -9 -9 411 -220 437 -220 6 0 12 -3 15
-6 6 -8 161 -74 175 -75 6 0 25 -8 43 -17 18 -10 37 -15 41 -12 5 3 11 1 13
-3 2 -8 132 -59 163 -66 6 -1 16 -5 23 -9 6 -5 16 -6 21 -3 5 4 11 1 13 -4 2
-6 16 -13 32 -16 16 -3 37 -9 48 -15 10 -5 18 -7 18 -3 0 3 6 2 13 -3 24 -19
108 -35 155 -31 59 6 115 44 143 99 18 36 19 67 19 718 0 578 -2 682 -15 694
-8 8 -12 17 -9 20 3 2 -8 17 -24 33 -33 33 -47 40 -192 100 -77 31 -192 84
-272 126 -32 16 -58 26 -58 22 0 -4 -6 0 -13 11 -9 12 -19 15 -28 10 -8 -5
-11 -4 -6 0 7 8 -67 49 -77 43 -3 -2 -12 6 -20 17 -9 11 -16 16 -16 12 0 -4
-6 -3 -12 3 -14 12 -170 107 -205 124 -13 6 -23 14 -23 19 0 4 -7 7 -15 7 -8
0 -15 5 -15 11 0 5 -5 7 -10 4 -6 -3 -10 -2 -10 4 0 12 -61 46 -75 42 -5 -1
-7 1 -3 5 6 6 -25 32 -106 86 -10 7 -25 19 -32 26 -8 7 -14 11 -14 9 0 -3 -14
8 -31 24 -17 16 -36 26 -43 22 -6 -3 -8 -3 -4 2 8 9 -80 82 -94 77 -5 -1 -7 2
-4 7 3 5 -7 17 -22 27 -15 9 -34 26 -43 36 -9 10 -22 18 -28 18 -7 0 -9 4 -6
10 3 6 2 10 -2 10 -5 0 -35 25 -68 55 -66 61 -244 235 -240 235 1 0 -22 26
-51 57 -30 31 -54 61 -54 65 0 4 -6 8 -14 8 -8 0 -18 5 -22 12 -5 7 -3 8 7 3
7 -5 -7 14 -31 43 -25 29 -48 52 -52 52 -5 0 -8 4 -8 10 0 5 -9 20 -19 32 -39
46 -56 67 -76 94 -11 16 -28 36 -37 46 -10 10 -19 21 -19 26 -3 17 -26 41 -33
34 -4 -4 -6 -2 -4 3 4 13 -41 85 -53 85 -6 0 -8 4 -5 9 3 5 -4 19 -17 33 -12
13 -22 26 -23 28 -1 9 -38 65 -47 71 -5 3 -8 8 -7 10 5 9 -43 79 -53 79 -6 0
-7 3 -4 7 7 6 -30 73 -47 85 -6 4 -7 8 -3 8 9 0 -31 71 -46 81 -5 3 -8 10 -8
15 2 13 -32 74 -41 74 -4 0 -5 7 -2 15 3 8 0 17 -8 20 -8 3 -15 15 -15 28 -1
12 -8 26 -15 32 -7 5 -14 17 -16 25 -2 8 -14 38 -27 65 -62 131 -122 280 -167
410 -11 33 -25 65 -29 71 -5 6 -6 13 -3 17 3 3 0 16 -7 29 -7 12 -13 28 -14
33 -1 18 -17 80 -23 90 -4 6 -7 15 -9 20 -1 6 -16 64 -32 130 -17 66 -33 129
-36 140 -18 81 -27 128 -40 205 -4 24 -26 167 -30 197 -2 16 -4 28 -5 28 -1 0
-3 20 -5 45 -2 25 -6 61 -9 80 -12 85 -20 291 -20 485 0 272 14 460 50 697 3
18 7 47 9 63 2 17 13 75 25 130 11 55 22 111 23 125 2 14 6 30 9 35 6 12 19
62 23 90 2 11 11 46 20 79 9 32 18 64 20 70 1 6 5 18 8 26 9 24 29 90 32 108
2 9 4 18 5 20 2 1 3 5 4 10 1 4 4 12 7 17 6 10 21 60 24 80 1 6 10 28 20 50
10 22 18 46 18 53 0 6 3 12 7 12 4 0 12 18 19 39 6 22 19 56 28 78 9 21 17 40
18 43 0 3 5 12 10 20 15 24 15 108 0 144 -15 35 -252 283 -267 279 -4 -2 -7 0
-6 5 4 9 -145 158 -154 155 -5 -2 -7 0 -5 5 3 9 -306 317 -316 314 -4 -1 -6 1
-5 6 5 14 -204 214 -238 228 -51 21 -114 18 -165 -10z"/>
<path d="M10152 9872 c-22 -3 -22 -7 -20 -93 1 -73 4 -89 17 -90 34 -1 66 -10
110 -31 25 -11 49 -20 54 -20 4 1 6 -3 5 -10 -2 -7 3 -12 11 -13 8 0 15 -7 17
-15 2 -8 11 -35 20 -60 16 -41 17 -131 18 -1135 2 -1158 1 -1164 -45 -1214
-10 -10 -15 -22 -12 -25 4 -3 0 -6 -8 -6 -9 0 -24 -8 -35 -17 -10 -10 -28 -19
-39 -21 -11 -2 -27 -6 -35 -9 -18 -7 -29 -9 -56 -11 -19 -2 -21 -9 -22 -92 -2
-80 0 -90 15 -90 26 -1 994 -1 1091 -1 l82 1 0 90 c0 78 -2 90 -17 90 -38 0
-132 33 -156 55 -13 13 -28 21 -32 17 -4 -4 -5 -2 -4 3 2 6 -6 28 -17 50 -11
22 -21 58 -23 80 -3 22 -5 258 -5 525 l-1 485 35 -1 c19 -1 44 -2 55 -3 14 -1
34 -21 58 -58 20 -32 48 -71 62 -87 14 -16 25 -33 25 -37 0 -4 15 -22 33 -40
17 -18 26 -29 18 -24 -9 5 -7 -2 5 -18 10 -15 22 -27 27 -27 4 0 7 -5 7 -10 0
-12 37 -67 60 -90 8 -8 21 -27 29 -42 8 -16 18 -28 23 -28 4 0 8 -6 8 -14 0
-8 10 -22 22 -30 12 -9 18 -16 13 -16 -6 0 -1 -7 9 -15 11 -8 16 -15 12 -15
-6 0 39 -67 55 -80 3 -3 25 -34 49 -70 24 -36 47 -66 52 -68 4 -2 8 -8 8 -13
0 -11 61 -92 73 -97 4 -2 5 -7 3 -11 -3 -4 9 -23 25 -41 17 -18 35 -44 40 -57
5 -13 13 -22 17 -19 10 6 14 -12 16 -80 1 -37 -4 -58 -17 -71 -9 -11 -14 -23
-10 -27 5 -4 4 -6 -2 -5 -5 2 -21 -3 -34 -10 -13 -7 -39 -13 -57 -14 l-34 -1
1 -88 1 -88 67 -1 c94 0 753 0 964 0 l178 1 -2 90 c-1 80 -4 90 -20 91 -11 1
-22 3 -26 4 -5 2 -18 6 -30 10 -13 4 -23 12 -23 17 0 6 -7 7 -16 4 -8 -3 -12
-2 -9 4 3 5 -5 15 -19 21 -13 6 -27 20 -29 31 -3 11 -10 17 -17 13 -6 -3 -9
-3 -8 2 3 7 -47 80 -63 93 -4 3 -19 25 -35 50 -45 69 -128 185 -136 188 -5 2
-8 10 -8 17 0 8 -8 18 -17 24 -10 5 -16 11 -14 13 7 5 -51 88 -61 88 -5 0 -7
4 -4 8 3 5 -4 18 -14 30 -11 12 -20 26 -20 31 0 5 -8 16 -17 23 -10 7 -24 25
-32 40 -8 15 -22 37 -33 47 -10 11 -18 23 -18 26 0 15 -48 74 -54 67 -4 -4 -6
-2 -5 3 5 16 -25 64 -67 109 -6 6 -10 13 -10 16 1 14 -52 79 -59 72 -5 -4 -5
-2 -1 5 4 7 -2 21 -14 33 -11 11 -20 25 -20 30 0 6 -11 22 -25 36 -13 13 -24
25 -23 27 4 6 -54 87 -62 87 -6 0 -9 4 -8 8 4 10 -44 82 -54 82 -5 0 -8 7 -8
15 0 7 -8 18 -17 24 -10 5 -16 11 -14 13 7 5 -51 88 -61 88 -5 0 -7 4 -4 8 2
4 -4 18 -13 31 -18 24 -18 24 15 53 19 17 31 34 28 39 -3 5 -1 8 3 7 5 -2 28
16 50 40 23 23 39 42 36 42 -2 0 9 12 26 26 17 14 28 31 24 37 -3 7 -3 9 2 5
4 -4 31 18 59 49 28 31 63 69 79 85 15 16 27 34 27 40 0 6 3 8 6 5 8 -8 73 64
74 81 0 6 4 11 8 10 5 -2 33 24 63 56 30 33 82 88 116 123 35 35 61 63 59 63
-5 0 121 123 174 170 19 18 52 40 72 51 20 10 40 23 43 29 4 6 11 8 16 5 5 -4
9 -1 9 4 0 6 3 10 8 9 4 -1 23 3 42 10 l36 12 1 90 c0 61 -3 90 -11 91 -14 1
-1029 1 -1036 0 -3 -1 -5 -42 -5 -91 0 -69 3 -89 12 -85 7 2 13 -1 13 -6 0 -6
9 -9 20 -6 11 3 20 1 20 -4 0 -5 3 -8 8 -7 16 4 60 -25 72 -47 20 -37 15 -128
-9 -172 -6 -13 -9 -23 -6 -23 3 0 -1 -10 -10 -23 -8 -13 -12 -27 -8 -30 3 -4
1 -7 -5 -7 -10 0 -46 -56 -40 -62 1 -2 -8 -14 -20 -28 -11 -14 -22 -28 -22
-32 0 -4 -12 -19 -26 -33 -14 -14 -22 -30 -19 -35 4 -6 3 -9 -2 -8 -4 2 -10
-2 -13 -7 -2 -5 -17 -22 -32 -37 -15 -15 -28 -32 -28 -38 0 -6 -4 -8 -10 -5
-5 3 -10 2 -10 -4 0 -5 -13 -22 -30 -38 -16 -15 -30 -34 -30 -40 0 -7 -4 -12
-8 -10 -12 3 -73 -69 -64 -77 4 -4 2 -6 -4 -4 -13 3 -64 -47 -64 -63 0 -6 -4
-7 -10 -4 -5 3 -10 2 -10 -2 0 -5 -11 -20 -24 -35 -14 -14 -22 -29 -18 -34 4
-4 2 -4 -4 -1 -6 3 -23 -8 -37 -26 -14 -18 -57 -65 -94 -104 l-69 -73 -75 0
-75 0 3 458 c2 468 3 479 20 522 6 14 8 29 5 34 -3 5 0 6 6 2 11 -6 16 6 13
27 0 4 5 7 12 7 7 0 23 10 37 23 14 13 31 22 38 19 6 -2 12 1 12 6 0 5 6 9 13
9 6 -1 31 2 55 7 l43 8 -3 91 -3 90 -570 1 c-313 1 -580 0 -593 -2z"/>
<path d="M13081 9870 c-5 -4 -7 -116 -2 -157 0 -6 24 -16 51 -22 28 -6 65 -19
83 -28 18 -9 37 -16 42 -14 5 1 7 -1 3 -5 -4 -3 2 -18 12 -32 11 -13 20 -31
20 -38 0 -8 3 -14 8 -14 4 0 9 -17 11 -38 4 -38 5 -2304 1 -2556 -1 -76 -6
-152 -11 -170 -5 -17 -12 -44 -15 -61 -7 -40 -58 -143 -86 -176 -13 -14 -50
-48 -82 -74 -71 -58 -100 -89 -121 -132 -19 -39 -28 -113 -14 -113 6 0 7 -5 4
-10 -11 -19 35 -68 79 -85 32 -12 60 -15 107 -11 95 9 132 19 216 57 24 10 47
19 53 19 5 0 10 5 10 11 0 5 5 7 10 4 6 -3 13 1 16 9 3 9 10 14 14 11 5 -3 14
1 22 8 7 8 24 19 36 26 13 7 31 19 40 26 83 67 107 88 105 91 -1 1 21 26 48
54 27 28 46 56 43 62 -5 7 -2 8 5 4 8 -5 14 0 18 13 3 12 10 21 15 21 5 0 6 5
3 10 -3 6 -2 10 3 10 13 0 84 160 87 195 1 6 4 24 8 40 35 147 41 239 39 555
-5 1013 -4 2104 3 2150 5 30 8 58 7 63 -1 4 1 7 6 7 4 0 15 15 25 33 17 31 71
64 122 74 11 3 27 6 35 8 8 2 20 4 26 4 15 1 15 171 0 172 -49 4 -1099 3
-1105 -1z"/>
<path d="M15522 9869 c-9 -4 -20 -5 -24 -3 -5 4 -19 -41 -20 -63 0 -5 -3 -12
-8 -18 -9 -11 -67 -160 -72 -185 -2 -8 -5 -17 -8 -20 -12 -10 -48 -118 -43
-124 4 -3 1 -6 -6 -6 -8 0 -11 -7 -7 -15 3 -8 1 -15 -3 -15 -11 0 -33 -60 -23
-60 4 0 2 -4 -4 -8 -10 -7 -57 -126 -52 -135 0 -1 -9 -21 -21 -45 -12 -23 -19
-47 -16 -51 3 -5 1 -11 -3 -13 -12 -4 -54 -118 -44 -118 4 0 2 -4 -4 -8 -5 -4
-21 -34 -33 -67 -13 -33 -30 -74 -37 -92 -8 -17 -14 -36 -14 -42 0 -6 -4 -19
-9 -29 -19 -37 -44 -103 -44 -117 0 -8 -4 -15 -8 -15 -4 0 -10 -12 -14 -27 -3
-16 -13 -41 -20 -58 -17 -40 -63 -166 -67 -185 -2 -8 -6 -17 -9 -20 -5 -4 -26
-58 -61 -152 -6 -15 -9 -30 -8 -34 1 -4 -2 -10 -7 -13 -7 -5 -41 -90 -47 -116
-1 -5 -8 -20 -14 -33 -7 -12 -10 -27 -7 -32 3 -6 3 -10 -2 -10 -4 0 -18 -26
-29 -57 -12 -32 -25 -67 -30 -78 -4 -11 -8 -22 -9 -25 -2 -6 -20 -51 -38 -95
-6 -16 -12 -32 -12 -35 -1 -3 -9 -22 -18 -44 -9 -21 -15 -42 -12 -46 3 -5 2
-10 -3 -12 -7 -3 -91 -200 -96 -226 -1 -7 -10 -22 -19 -33 -9 -10 -17 -24 -17
-30 0 -5 -11 -22 -24 -36 -14 -15 -22 -31 -19 -37 3 -6 3 -8 -1 -4 -7 6 -28
-7 -62 -40 -8 -7 -14 -10 -14 -5 0 4 -6 1 -13 -7 -11 -14 -18 -17 -60 -25 -33
-7 -37 -17 -37 -101 l0 -84 103 -1 c110 0 664 0 685 1 8 0 12 24 12 84 l0 85
-54 24 c-30 14 -59 35 -66 46 -6 13 -16 19 -23 15 -7 -4 -9 -3 -4 1 4 5 1 18
-7 29 -19 29 -14 154 9 227 4 10 8 29 9 42 2 12 6 29 9 37 22 65 51 168 50
183 0 9 3 17 7 17 4 0 11 15 15 33 9 35 8 33 19 65 l7 22 455 0 c295 0 454 -3
455 -10 2 -13 6 -29 9 -32 1 -2 3 -14 5 -28 2 -14 13 -61 25 -105 12 -44 23
-87 25 -95 2 -8 15 -62 29 -120 44 -184 47 -229 17 -270 -20 -27 -83 -63 -121
-68 -38 -6 -42 -14 -44 -101 -1 -66 2 -81 14 -82 22 0 1017 0 1072 0 l48 1 -1
86 c-1 70 -3 86 -17 90 -120 38 -173 98 -230 259 -5 17 -13 39 -18 50 -4 11
-8 25 -9 31 -7 31 -49 160 -54 164 -3 3 -6 10 -6 16 0 14 -58 198 -65 204 -3
3 -6 14 -8 25 -4 27 -56 189 -62 195 -3 3 -6 16 -8 30 -1 13 -6 27 -10 30 -4
3 -8 12 -8 20 0 17 -46 163 -54 170 -3 3 -6 16 -8 30 -1 14 -7 27 -12 28 -6 2
-8 7 -5 12 3 4 -2 27 -11 51 -9 24 -17 49 -18 54 -1 6 -19 64 -40 130 -45 144
-44 139 -43 145 0 3 -6 16 -13 30 -8 14 -13 28 -12 32 1 4 -2 18 -7 30 -5 13
-9 25 -10 28 0 3 -12 39 -27 80 -14 41 -26 80 -28 85 -1 6 -5 16 -9 23 -5 6
-6 12 -3 12 3 0 1 12 -5 28 -6 15 -12 34 -14 42 -2 8 -13 42 -25 75 -11 33
-23 71 -26 84 -3 13 -9 31 -13 40 -5 9 -9 18 -9 21 -1 3 -3 12 -6 20 -2 8 -15
47 -27 85 -13 39 -24 79 -26 89 -2 10 -12 38 -22 62 -11 23 -17 44 -15 46 2 3
-6 29 -17 59 -11 30 -22 64 -25 76 -7 38 -22 71 -35 79 -15 9 -402 12 -427 3z
m4 -711 c1 -19 102 -352 121 -398 3 -8 7 -19 8 -25 7 -41 19 -75 25 -75 4 0 7
-6 7 -12 -2 -26 16 -88 25 -88 5 0 7 -4 4 -8 -3 -5 13 -64 35 -133 22 -68 41
-131 43 -139 2 -8 6 -22 9 -30 11 -30 47 -149 47 -157 0 -5 -166 -8 -370 -8
l-369 0 6 25 c3 14 10 33 15 43 5 9 6 21 3 26 -3 5 -1 11 5 13 5 1 11 12 13
23 2 11 9 30 15 43 7 12 10 26 7 31 -3 5 -2 11 3 13 7 3 49 104 57 140 2 9 9
26 15 37 6 12 8 21 4 21 -3 0 -1 6 5 13 6 8 12 22 14 33 2 10 9 30 14 44 6 14
9 28 6 33 -2 4 0 7 5 7 9 0 27 47 24 63 -1 4 3 7 10 7 6 0 9 3 6 6 -4 3 0 21
8 40 8 19 11 34 8 34 -4 0 -1 6 5 13 6 8 8 17 4 20 -3 4 -1 7 5 7 6 0 14 15
18 33 10 42 9 38 21 67 6 14 18 42 26 63 9 20 13 37 10 37 -3 0 0 7 7 15 7 8
10 15 7 15 -3 0 2 19 13 42 10 23 16 46 14 50 -3 4 0 8 5 8 6 0 11 7 11 15 0
24 25 17 26 -7z"/>
<path d="M17339 9850 c-1 -35 -1 -100 0 -132 1 -23 6 -27 44 -33 23 -4 54 -14
70 -21 15 -8 27 -12 27 -8 0 4 9 -5 21 -20 11 -14 25 -23 31 -20 6 4 8 2 4 -4
-3 -6 1 -17 9 -26 9 -8 16 -19 16 -23 0 -4 4 -26 10 -48 8 -27 9 -97 4 -210
-4 -93 -9 -219 -11 -280 -7 -220 -14 -443 -19 -577 -3 -75 -7 -203 -10 -285
-4 -133 -8 -229 -20 -588 -6 -179 -15 -256 -36 -314 -11 -31 -21 -62 -21 -68
-1 -7 -3 -11 -6 -9 -2 3 -18 -10 -35 -27 -17 -18 -31 -30 -32 -28 0 2 -16 -1
-35 -7 -19 -6 -46 -14 -60 -16 -14 -3 -27 -5 -30 -6 -3 -2 -7 -2 -10 -2 -4 0
-5 -124 -1 -168 1 -13 50 -15 389 -13 213 1 399 2 415 2 l27 1 0 89 0 88 -42
8 c-24 5 -47 9 -53 9 -5 1 -12 3 -15 6 -3 3 -22 14 -42 25 -21 11 -38 23 -38
28 0 4 -5 5 -12 1 -6 -4 -8 -3 -4 4 3 6 1 14 -4 17 -12 7 -29 45 -38 80 -7 28
-6 405 2 945 11 721 15 994 16 1008 0 22 15 13 30 -20 8 -18 15 -35 15 -38 1
-6 73 -207 85 -235 4 -11 17 -45 28 -75 11 -30 24 -64 28 -75 4 -11 8 -22 8
-25 1 -3 6 -18 13 -35 16 -43 47 -128 78 -215 15 -41 31 -83 37 -94 5 -10 11
-28 14 -40 2 -11 8 -30 13 -41 9 -19 45 -115 47 -125 0 -3 6 -18 12 -33 7 -16
12 -30 12 -32 0 -2 5 -16 12 -32 6 -15 12 -32 14 -38 1 -5 8 -23 15 -40 7 -16
13 -32 13 -35 5 -26 102 -276 109 -281 5 -3 8 -9 8 -13 -1 -3 -1 -7 0 -8 0 -2
2 -12 4 -23 2 -11 10 -38 18 -60 9 -22 32 -83 52 -135 20 -52 38 -102 40 -110
2 -8 4 -16 5 -17 2 -2 3 -6 5 -10 1 -5 7 -20 13 -36 l12 -27 207 2 208 3 12
25 c6 14 13 34 15 45 1 11 5 22 8 25 3 3 14 30 24 60 10 30 24 69 31 85 23 53
58 150 60 165 1 8 9 30 18 47 10 18 17 34 17 35 -1 4 4 20 41 118 15 41 29 84
31 95 2 11 6 22 9 25 9 7 51 122 52 143 1 9 4 17 8 17 6 0 33 76 34 95 0 6 2
12 5 15 12 10 69 174 64 182 -3 4 -1 8 4 8 8 0 36 71 37 95 0 6 4 13 8 16 5 3
10 15 12 25 2 10 4 20 5 22 2 1 3 5 4 10 1 4 10 24 19 46 9 21 17 42 17 46 0
4 9 29 19 56 11 27 23 58 27 69 4 11 8 25 9 30 0 6 4 15 8 21 9 15 68 175 73
198 2 11 8 24 14 30 5 5 10 16 10 23 0 19 34 93 42 93 5 0 8 -66 9 -147 0
-154 3 -352 14 -1053 4 -228 8 -485 9 -570 1 -85 -2 -173 -6 -195 -5 -22 -10
-47 -11 -55 -1 -8 -10 -21 -19 -28 -10 -7 -18 -20 -18 -28 0 -8 -6 -14 -14
-14 -8 0 -21 -6 -28 -14 -12 -11 -34 -21 -68 -31 -3 -1 -24 -5 -47 -10 l-43
-8 0 -88 c0 -64 3 -89 13 -89 20 -1 1067 -1 1125 -1 l52 1 0 89 0 88 -59 12
c-33 6 -75 22 -94 35 -20 14 -38 22 -41 20 -3 -2 -4 -1 -1 2 2 4 -4 19 -15 34
-44 62 -45 86 -65 1015 -2 105 -7 294 -11 420 -9 319 -10 801 -1 855 16 105
33 136 92 168 34 18 30 17 70 26 l30 8 0 84 c0 53 -4 87 -12 92 -6 4 -233 7
-504 6 -416 -1 -493 -3 -495 -15 -2 -8 -19 -57 -39 -109 -20 -52 -38 -99 -39
-105 -2 -5 -8 -23 -15 -40 -14 -37 -22 -59 -22 -62 0 -2 -6 -18 -15 -38 -8
-19 -12 -35 -8 -35 3 0 -2 -7 -10 -16 -14 -13 -21 -42 -17 -66 0 -5 -3 -8 -8
-8 -9 0 -25 -51 -21 -66 1 -4 -2 -10 -7 -13 -9 -6 -55 -122 -59 -146 -1 -6
-11 -31 -22 -55 -16 -37 -41 -106 -47 -130 -1 -3 -7 -18 -14 -35 -36 -85 -59
-154 -54 -159 4 -3 1 -6 -5 -6 -7 0 -11 -3 -10 -7 1 -5 -4 -21 -11 -38 -7 -16
-13 -38 -14 -47 -1 -10 -4 -18 -8 -18 -7 0 -34 -80 -32 -97 0 -7 -3 -13 -7
-13 -4 0 -11 -12 -16 -27 -4 -16 -8 -30 -9 -33 -1 -3 -9 -22 -18 -44 -9 -21
-14 -43 -10 -50 3 -6 3 -8 -2 -4 -7 7 -54 -108 -58 -142 -1 -8 -4 -17 -7 -20
-3 -3 -11 -18 -18 -34 -7 -16 -16 -26 -19 -22 -7 6 -31 68 -37 96 -11 44 -60
175 -67 178 -4 2 -5 10 -2 18 3 8 0 14 -7 14 -6 0 -8 5 -5 10 3 6 3 16 -2 23
-4 6 -8 18 -10 26 -1 8 -16 53 -34 100 -18 47 -32 91 -32 98 0 7 -5 13 -10 13
-6 0 -8 3 -5 6 5 4 -52 181 -79 244 -3 8 -7 20 -9 25 -4 17 -36 108 -47 135
-5 14 -11 30 -12 35 0 6 -5 19 -9 30 -13 33 -19 49 -21 60 -9 39 -70 201 -77
203 -4 2 -6 7 -3 12 3 4 -4 34 -16 67 -32 88 -32 87 -35 98 -11 41 -67 192
-74 199 -5 5 -228 10 -520 10 l-510 1 -1 -25z"/>
<path d="M9039 5876 c-2 -2 -22 -6 -44 -8 -22 -3 -50 -10 -61 -16 -12 -6 -23
-9 -26 -7 -2 2 -28 -2 -58 -10 -30 -9 -71 -18 -90 -21 -19 -3 -53 -10 -75 -15
-22 -5 -53 -11 -70 -13 -58 -7 -192 -27 -214 -31 -12 -2 -52 -6 -89 -9 -37 -3
-101 -9 -142 -13 -164 -15 -677 -7 -820 13 -19 2 -57 6 -85 9 -27 2 -61 6 -75
9 -14 2 -47 7 -75 11 -27 4 -57 8 -65 10 -8 2 -55 11 -105 20 -49 10 -99 19
-110 21 -28 4 -53 10 -103 23 -37 11 -61 10 -120 -3 -8 -1 -17 -8 -21 -15 -5
-7 -12 -11 -17 -10 -14 4 -76 -82 -70 -97 3 -8 1 -14 -3 -14 -12 0 -12 -2846
-1 -2896 5 -21 17 -44 26 -51 10 -7 14 -13 9 -13 -4 0 3 -9 16 -20 13 -11 29
-23 34 -28 17 -14 81 -29 160 -38 48 -5 69 -8 145 -18 19 -3 58 -7 85 -10 28
-3 70 -7 95 -10 25 -3 79 -8 120 -11 41 -3 107 -9 145 -13 85 -9 887 -9 965 0
30 3 98 9 150 13 52 3 106 8 120 10 14 2 59 7 100 10 41 4 83 9 93 11 10 2 46
6 80 9 34 3 69 8 77 10 8 2 35 7 60 10 111 14 150 30 193 79 15 17 31 47 36
66 12 44 11 2899 0 2906 -4 2 -6 10 -3 17 2 7 -4 22 -14 32 -10 11 -20 25 -22
30 -5 13 -30 38 -30 30 0 -4 -7 1 -16 9 -8 9 -22 17 -30 17 -22 2 -28 4 -40
11 -6 4 -13 6 -15 4z"/>
<path d="M9865 5782 c-48 -4 -115 -24 -115 -34 0 -5 -4 -7 -9 -4 -15 10 -101
-75 -129 -128 l-27 -51 -1 -1237 c-1 -740 3 -1238 8 -1238 5 0 7 -4 3 -9 -7
-12 15 -61 27 -61 5 0 7 -4 3 -9 -14 -24 100 -119 167 -139 28 -8 10792 -9
10828 0 40 9 60 19 60 30 0 5 4 7 9 4 16 -10 93 77 118 132 l23 53 0 1232 c0
946 -3 1236 -12 1245 -7 7 -8 12 -4 12 8 0 -40 88 -58 105 -40 37 -79 64 -87
59 -5 -3 -9 -1 -9 4 0 34 -9 34 -5426 35 -2936 1 -5352 1 -5369 -1z m7121
-436 c34 -3 84 -10 110 -16 49 -11 153 -48 165 -59 4 -3 10 -44 14 -91 3 -47
8 -103 10 -125 17 -197 17 -193 -4 -204 -28 -15 -28 -15 -49 29 -10 22 -22 37
-27 33 -4 -5 -5 -2 -1 5 4 7 3 18 -2 25 -6 7 -25 39 -43 72 -66 121 -172 196
-284 201 -69 2 -185 -40 -167 -62 4 -5 3 -6 -2 -1 -12 9 -57 -33 -49 -46 3 -6
1 -7 -4 -4 -13 8 -73 -102 -90 -163 -44 -165 -53 -253 -53 -515 0 -259 10
-391 40 -530 6 -27 13 -63 16 -78 8 -41 39 -111 69 -154 14 -21 25 -35 25 -31
0 3 13 -7 30 -22 17 -16 52 -33 79 -40 51 -12 124 -6 129 10 2 6 7 8 11 5 12
-7 88 61 103 93 11 21 14 75 12 232 -1 113 -5 216 -8 229 -12 52 -47 83 -117
104 -11 4 -15 17 -15 44 l1 38 278 1 c303 2 282 6 277 -55 -2 -24 -18 -48 -32
-47 -3 1 -16 -11 -28 -26 -12 -16 -19 -28 -16 -28 3 0 -1 -15 -9 -32 -9 -23
-14 -84 -15 -197 l-1 -163 -36 -57 c-49 -77 -169 -192 -231 -221 -29 -14 -52
-28 -52 -33 0 -4 -4 -6 -8 -3 -5 3 -28 -2 -53 -11 -91 -32 -294 -21 -382 21
-18 8 -38 16 -46 18 -7 2 -25 13 -39 26 -14 12 -31 22 -37 22 -7 0 -16 7 -19
16 -3 8 -11 12 -17 8 -7 -4 -9 -3 -6 3 7 12 -28 44 -39 35 -4 -4 -4 -1 0 6 4
7 1 15 -8 18 -9 3 -16 10 -16 16 0 5 -11 24 -24 41 -44 60 -90 173 -117 292
-10 39 -13 60 -29 180 -8 63 -5 383 4 424 3 12 8 42 10 65 3 22 10 56 15 74 5
18 10 36 11 40 2 14 21 87 27 102 4 8 7 17 8 20 1 3 9 23 18 45 10 22 17 44
17 48 -1 4 6 15 15 23 8 9 15 22 15 30 0 8 3 14 8 14 4 0 16 17 27 37 20 37
155 181 155 166 0 -4 6 -1 13 7 7 9 27 22 45 29 17 7 32 18 32 24 0 6 3 8 6 4
4 -3 23 1 45 9 21 9 73 21 116 28 76 12 95 12 219 2z m-6216 -12 c82 -16 121
-28 163 -50 15 -9 27 -12 27 -9 0 4 6 0 14 -8 11 -10 16 -62 21 -217 3 -113 3
-201 -1 -197 -4 3 -14 2 -23 -2 -10 -6 -21 -4 -29 5 -7 8 -10 14 -7 14 3 0 -4
18 -15 40 -11 22 -18 40 -15 40 3 0 -6 18 -20 40 -14 22 -25 44 -25 48 0 5
-11 21 -25 36 -14 15 -25 29 -25 32 0 11 -71 74 -84 74 -7 0 -16 6 -19 14 -13
32 -166 43 -220 15 -32 -17 -77 -61 -77 -76 0 -7 -5 -13 -11 -13 -5 0 -7 -4
-4 -10 3 -5 2 -10 -4 -10 -13 0 -26 -75 -23 -140 2 -37 12 -75 33 -118 17 -35
33 -61 36 -59 2 3 19 -10 37 -29 18 -19 36 -34 40 -34 4 0 19 -8 34 -19 71
-48 237 -146 245 -143 4 1 6 -2 2 -8 -6 -10 9 -15 30 -10 5 1 7 -2 3 -6 -5 -4
2 -14 15 -23 12 -9 22 -13 23 -11 1 3 13 -10 28 -27 15 -18 32 -32 39 -30 6 1
12 -5 12 -13 0 -8 6 -14 13 -13 7 2 11 0 10 -5 -2 -4 9 -23 24 -43 47 -61 75
-139 93 -259 8 -50 5 -221 -4 -247 -1 -2 -1 -5 -1 -8 0 -3 -6 -20 -14 -39 -8
-19 -12 -37 -8 -40 3 -3 0 -6 -6 -6 -7 0 -11 -3 -10 -7 1 -5 -4 -21 -11 -38
-7 -16 -13 -32 -13 -35 -1 -3 -8 -10 -17 -17 -9 -7 -12 -13 -7 -13 5 0 -1 -8
-12 -19 -12 -10 -19 -21 -15 -25 3 -3 1 -6 -5 -6 -7 0 -12 -8 -12 -17 0 -9 -3
-13 -7 -10 -3 4 -14 -4 -23 -19 -10 -14 -21 -26 -26 -27 -17 -2 -74 -39 -74
-48 0 -5 -3 -8 -7 -7 -8 2 -81 -20 -98 -30 -30 -18 -248 -21 -330 -6 -82 16
-86 17 -102 27 -7 5 -17 5 -23 2 -5 -3 -10 -2 -10 4 0 6 -16 13 -35 17 -19 3
-35 10 -35 14 0 4 -11 11 -25 14 -17 4 -25 14 -26 29 -1 12 -3 40 -5 62 -1 22
-5 78 -8 125 -17 236 -17 247 -4 247 7 0 19 2 26 4 14 4 22 -6 40 -51 5 -14
14 -36 19 -50 6 -14 11 -28 12 -32 1 -4 10 -22 21 -40 11 -18 24 -43 30 -56
19 -43 102 -142 120 -142 6 0 10 -4 10 -10 0 -5 14 -16 30 -25 17 -9 30 -13
30 -9 0 4 6 1 14 -5 23 -19 144 -21 185 -4 42 18 93 58 84 67 -4 3 -1 6 6 6
13 0 58 91 68 137 10 45 5 197 -7 201 -5 2 -8 8 -4 13 7 12 -48 109 -63 109
-6 0 -15 5 -19 12 -5 7 -3 8 7 3 8 -5 -2 7 -21 26 -19 20 -36 34 -38 33 -2 -1
-15 9 -29 22 -14 13 -28 22 -30 20 -2 -2 -16 7 -30 20 -14 13 -28 22 -31 20
-2 -3 -13 4 -25 14 -11 11 -25 16 -31 13 -6 -3 -8 -2 -3 2 8 10 -43 46 -55 39
-4 -3 -8 -1 -8 5 0 5 -17 20 -37 32 -21 13 -51 36 -68 51 -16 15 -33 28 -37
28 -20 0 -90 88 -121 152 -45 92 -55 148 -51 284 4 134 7 150 32 208 12 25 19
46 16 46 -5 0 6 13 34 45 6 7 12 19 12 26 0 7 3 10 6 7 3 -3 23 11 45 33 21
21 39 36 39 33 0 -2 19 6 43 18 23 12 47 23 52 24 6 2 19 5 30 8 66 18 100 22
185 24 52 0 129 -6 170 -14z m1661 -53 c0 -20 2 -43 4 -52 1 -8 6 -64 9 -125
4 -60 9 -137 12 -170 4 -57 3 -62 -18 -68 -25 -6 -48 15 -48 43 0 9 -13 43
-29 77 -57 121 -156 185 -296 192 -49 2 -97 -2 -125 -10 l-45 -14 -1 -343 0
-342 70 6 c72 7 97 9 244 21 l83 7 -5 -29 c-2 -16 -5 -53 -5 -82 l-1 -54 -132
6 c-73 4 -160 9 -194 12 l-61 4 1 -322 c2 -362 6 -383 69 -410 40 -17 219 -17
267 0 45 15 111 74 142 127 23 37 78 171 93 223 5 15 12 21 22 18 8 -3 19 -6
25 -6 9 0 5 -92 -7 -160 -2 -14 -7 -47 -9 -75 -13 -119 -27 -232 -32 -256 l-5
-25 -504 0 -505 0 0 43 c0 34 4 43 17 43 9 0 32 10 50 23 63 42 63 41 63 809
0 473 -3 703 -11 733 -13 52 -48 91 -90 100 -26 6 -29 11 -29 44 0 21 2 40 5
42 2 3 223 5 490 5 l485 0 1 -35z m1005 -223 c71 -142 131 -258 135 -258 3 0
6 -6 6 -13 0 -13 221 -458 232 -467 3 -3 7 -12 9 -20 2 -8 24 -57 50 -107 36
-71 52 -93 67 -93 20 0 20 5 18 163 -12 863 -12 854 -51 906 -10 14 -34 36
-53 49 -32 22 -38 40 -30 93 1 3 84 5 186 5 l185 0 0 -42 c0 -34 -4 -44 -21
-49 -35 -11 -76 -63 -89 -113 -15 -57 -17 -131 -26 -867 -4 -319 -7 -623 -8
-675 l-1 -95 -60 -2 c-98 -3 -99 -2 -146 95 -23 48 -47 90 -53 94 -6 4 -8 8
-4 8 8 0 -68 150 -81 160 -3 3 -6 10 -6 15 -1 10 -126 266 -135 275 -3 3 -23
41 -44 85 -22 44 -44 83 -49 86 -5 3 -8 9 -7 13 2 7 -327 665 -340 679 -3 4
-14 5 -22 2 -14 -6 -16 -62 -12 -548 6 -758 7 -766 27 -804 18 -34 66 -73 90
-73 22 0 26 -18 18 -81 -1 -9 -375 -7 -382 3 -10 15 3 78 16 78 44 0 89 52
110 126 5 19 11 461 17 1199 2 276 -3 298 -72 331 -37 17 -40 22 -40 60 l0 40
218 1 219 0 129 -259z m1931 219 c7 -21 15 -48 17 -60 2 -12 25 -101 51 -197
50 -187 65 -248 67 -267 1 -7 4 -13 7 -13 3 0 7 -10 8 -22 0 -13 10 -57 21
-98 11 -41 37 -138 57 -215 20 -77 45 -174 56 -215 28 -103 69 -257 81 -305 5
-22 11 -47 14 -55 30 -117 39 -146 47 -151 5 -3 8 -9 8 -13 -4 -25 0 -36 11
-30 6 4 8 3 4 -4 -7 -12 28 -53 62 -71 17 -9 22 -20 22 -49 l0 -38 -275 -1
-275 0 0 38 c0 35 4 41 39 58 64 33 68 70 30 251 -11 52 -22 109 -25 125 -3
17 -8 37 -11 45 -4 8 -5 22 -4 32 1 9 -3 20 -10 24 -15 9 -482 10 -496 1 -6
-4 -14 -24 -18 -44 -5 -21 -9 -42 -11 -48 -2 -5 -5 -20 -8 -33 -3 -13 -7 -31
-10 -40 -12 -41 -26 -128 -31 -192 -4 -53 6 -75 52 -114 26 -23 33 -36 33 -65
l0 -37 -187 0 -188 1 -1 38 c-1 34 3 41 38 60 52 30 93 114 162 337 30 96 82
263 117 370 34 107 63 202 64 210 1 8 5 22 8 30 9 22 179 554 182 570 7 36 70
217 77 221 5 3 53 6 106 5 l97 -1 12 -38z m3179 26 c2 -7 7 -21 10 -30 4 -10
8 -27 10 -38 1 -11 10 -47 19 -80 9 -33 32 -121 51 -195 19 -74 44 -169 56
-210 27 -101 66 -252 84 -325 8 -33 17 -67 21 -75 3 -8 7 -22 8 -30 2 -18 44
-179 52 -200 3 -8 7 -27 9 -41 2 -15 9 -39 15 -55 6 -16 13 -38 15 -49 7 -53
78 -304 94 -335 19 -36 62 -80 80 -80 6 0 10 -6 11 -12 0 -7 2 -27 3 -44 l2
-30 -273 -1 c-189 0 -273 4 -274 11 -1 6 -2 23 -3 38 -2 22 3 30 29 42 73 35
77 70 30 300 -19 99 -38 182 -40 185 -7 7 -494 5 -501 -2 -4 -3 -7 -19 -9 -35
-1 -16 -5 -33 -8 -39 -6 -9 -22 -76 -33 -132 -3 -14 -7 -27 -9 -31 -2 -3 -7
-33 -10 -65 -4 -33 -7 -62 -8 -65 -6 -36 53 -127 74 -114 9 5 12 -6 12 -51 0
-14 -1 -29 -2 -33 0 -5 -84 -9 -186 -9 l-185 0 0 44 c0 25 5 43 11 43 14 0 74
50 74 62 0 5 5 12 12 16 14 9 76 162 68 170 -2 3 -1 10 4 16 4 6 21 52 36 101
15 50 36 119 48 155 11 36 20 71 20 77 0 7 4 13 8 13 4 0 10 17 15 38 8 40 8
40 17 62 22 58 46 144 41 151 -3 5 0 9 5 9 6 0 11 6 11 13 0 8 22 83 50 167
27 84 47 157 44 162 -3 4 -1 8 3 8 8 0 32 68 39 110 2 8 10 35 19 60 9 25 18
52 20 60 2 8 15 49 29 90 15 41 27 76 27 77 0 2 1 8 3 15 3 7 12 38 21 70 l17
56 105 -1 c78 0 106 -4 109 -14z m1839 4 c4 -12 10 -93 20 -317 3 -58 7 -110
10 -117 5 -15 -3 -20 -38 -27 -17 -3 -25 -1 -21 5 3 6 -1 24 -9 42 -8 18 -29
69 -47 115 -52 133 -111 169 -275 167 l-60 0 0 -758 c0 -494 3 -760 10 -765 6
-4 11 -14 13 -22 6 -27 45 -60 78 -66 34 -6 43 -25 36 -70 -4 -21 -7 -21 -298
-21 -162 0 -295 4 -295 9 -6 41 -2 71 11 75 74 23 106 55 116 115 7 36 13
1476 7 1494 -8 22 -223 5 -223 -17 0 -6 -4 -8 -10 -4 -9 5 -60 -44 -63 -62 -1
-4 -8 -16 -17 -26 -8 -10 -16 -22 -16 -27 -1 -6 -3 -12 -4 -15 -1 -3 -3 -8 -4
-12 -1 -5 -9 -24 -18 -43 -8 -19 -20 -52 -27 -73 -11 -33 -17 -38 -39 -35 -25
3 -27 6 -25 53 4 126 24 398 29 407 2 3 263 6 580 6 427 0 576 -3 579 -11z"/>
<path d="M15133 4964 c3 -3 -3 -29 -12 -57 -10 -29 -19 -56 -20 -62 -1 -5 -14
-48 -28 -95 -14 -47 -27 -92 -28 -100 -1 -8 -7 -28 -14 -43 -6 -16 -11 -32
-11 -36 0 -4 -14 -49 -30 -100 -17 -52 -28 -96 -25 -99 3 -3 -2 -16 -10 -29
-9 -13 -13 -23 -11 -23 3 0 -2 -16 -10 -35 -8 -20 -12 -40 -9 -45 3 -5 1 -11
-5 -15 -5 -3 -10 -15 -10 -26 0 -18 9 -19 216 -19 200 0 215 1 210 18 -2 9
-17 69 -33 132 -15 63 -30 117 -33 120 -3 3 -5 10 -5 16 0 30 -121 504 -129
504 -5 0 -7 -3 -3 -6z"/>
<path d="M18314 4938 c-5 -18 -9 -37 -10 -43 0 -5 -4 -17 -7 -25 -14 -32 -100
-326 -101 -342 0 -10 -4 -18 -9 -18 -4 0 -7 -6 -6 -12 1 -7 -1 -20 -4 -28 -3
-8 -22 -69 -42 -135 -19 -66 -38 -128 -41 -137 -5 -17 10 -18 216 -18 134 0
219 4 215 9 -3 5 -9 29 -14 53 -5 24 -16 68 -25 98 -8 30 -17 66 -20 80 -9 45
-138 545 -141 548 -2 2 -7 -12 -11 -30z"/>
</g>
</svg>
